<svg width="1794" height="383" viewBox="0 0 1794 383" fill="none" xmlns="http://www.w3.org/2000/svg">
<path d="M4 53.4699V31.1294L43 11.6602V13.6602V46.6602L4 66.6602V53.4699Z" fill="white"/>
<path d="M945 52.8098V30.4693L984 11V13V46L945 66V52.8098Z" fill="white"/>
<path d="M3.90625 310.547V97.6562L42.9688 77.5V80.0781V292.969L5.85938 310.547H3.90625Z" fill="white"/>
<path d="M111.328 310.547V146.484C111.328 107.422 130.859 87.8906 169.922 87.8906H214.844C253.906 87.8906 273.438 107.422 273.438 146.484V292.969L236.328 310.547H234.375V146.484C234.375 130.859 227.865 123.047 214.844 123.047H169.922C156.901 123.047 150.391 130.859 150.391 146.484V292.969L113.281 310.547H111.328Z" fill="white"/>
<path d="M357.812 310.547V123.438H307.617V121.484L323.438 87.8906H357.812V17.5781L394.922 0H396.875V87.8906H447.07V89.8438L431.25 123.438H396.875V292.969L359.766 310.547H357.812Z" fill="white"/>
<path d="M539.844 302.734C500.781 302.734 481.25 283.203 481.25 244.141V146.484C481.25 107.422 500.781 87.8906 539.844 87.8906H584.766C623.828 87.8906 643.359 107.422 643.359 146.484V156.836L520.898 251.562C522.721 262.24 529.036 267.578 539.844 267.578H584.766C597.786 267.578 604.297 259.766 604.297 244.141V233.789L641.406 216.211H643.359V244.141C643.359 283.203 623.828 302.734 584.766 302.734H539.844ZM520.312 210.742L604.102 143.164C603.32 129.753 596.875 123.047 584.766 123.047H539.844C526.823 123.047 520.312 130.859 520.312 146.484V210.742Z" fill="white"/>
<path d="M711.719 310.547V17.5781L748.828 0H750.781V292.969L713.672 310.547H711.719Z" fill="white"/>
<path d="M828.906 310.547V17.5781L866.016 0H867.969V292.969L830.859 310.547H828.906Z" fill="white"/>
<path d="M1121.88 267.578H1166.8C1179.82 267.578 1186.33 259.766 1186.33 244.141V146.484C1186.33 130.859 1179.82 123.047 1166.8 123.047H1121.88C1108.85 123.047 1102.34 130.859 1102.34 146.484V244.141C1102.34 259.766 1108.85 267.578 1121.88 267.578ZM1121.88 302.734C1082.81 302.734 1063.28 283.203 1063.28 244.141V17.5781L1100.39 0H1102.34V93.9453C1107.55 89.9089 1114.06 87.8906 1121.88 87.8906H1166.8C1205.86 87.8906 1225.39 107.422 1225.39 146.484V244.141C1225.39 283.203 1205.86 302.734 1166.8 302.734H1121.88Z" fill="white"/>
<path d="M1342.58 302.734C1303.52 302.734 1283.98 283.203 1283.98 244.141V97.6562L1321.09 80.0781H1323.05V244.141C1323.05 259.766 1329.56 267.578 1342.58 267.578H1387.5C1400.52 267.578 1407.03 259.766 1407.03 244.141V97.6562L1444.14 80.0781H1446.09V324.219C1446.09 363.281 1426.56 382.812 1387.5 382.812H1304.3V380.859L1319.92 347.656H1387.5C1400.52 347.656 1407.03 339.844 1407.03 324.219V296.875C1401.95 300.781 1395.44 302.734 1387.5 302.734H1342.58Z" fill="white"/>
<path d="M1524.22 310.547V17.5781L1561.33 0H1563.28V292.969L1526.17 310.547H1524.22Z" fill="white"/>
<path d="M1690.23 302.734C1651.17 302.734 1631.64 283.203 1631.64 244.141V146.484C1631.64 107.422 1651.17 87.8906 1690.23 87.8906H1735.16C1744.01 87.8906 1750.52 89.9089 1754.69 93.9453V17.5781L1791.8 0H1793.75V244.141C1793.75 283.203 1774.22 302.734 1735.16 302.734H1690.23ZM1690.23 267.578H1735.16C1748.18 267.578 1754.69 259.766 1754.69 244.141V146.484C1754.69 130.859 1748.18 123.047 1735.16 123.047H1690.23C1677.21 123.047 1670.7 130.859 1670.7 146.484V244.141C1670.7 259.766 1677.21 267.578 1690.23 267.578Z" fill="white"/>
<path fill-rule="evenodd" clip-rule="evenodd" d="M946.094 97.6562V310.547H948.047L985.156 292.969V80.0781H983.203L946.094 97.6562Z" fill="white"/>
</svg>
